<?xml version="1.0" encoding="utf-8"?>
<!-- Generator: Adobe Illustrator 15.0.2, SVG Export Plug-In . SVG Version: 6.00 Build 0)  -->
<!DOCTYPE svg PUBLIC "-//W3C//DTD SVG 1.1//EN" "http://www.w3.org/Graphics/SVG/1.1/DTD/svg11.dtd">
<svg version="1.1" id="Logo" xmlns="http://www.w3.org/2000/svg" xmlns:xlink="http://www.w3.org/1999/xlink" x="0px" y="0px"
	 width="600px" height="202.93px" viewBox="0 194.5 600 202.93" enable-background="new 0 194.5 600 202.93" xml:space="preserve">
<g>
	<path fill="#003375" d="M39.085,291.286c-3.807-2.573-11.83-6.695-14.928-8.512c-3.66-2.134-5.559-3.088-5.704-5.844
		c-0.067-1.336,0.106-2.521,1.07-3.549c1.424-1.521,3.967-1.788,8.102-1.679c5.034,0.142,11.604,0.903,16.303,1.903
		c0.077,0.019-0.035-9.961,0.023-12.174c-4.291-1.148-11.118-2.094-16.8-2.094c-16.401,0.012-23.479,5.511-23.479,18.543
		c0,8.463,2.624,12.201,12.452,17.86c3.188,1.842,7.132,4.124,11.217,6.816c3.426,2.257,4.374,3.411,4.805,5.651
		c0.423,2.233-0.563,4.622-2.146,5.597c-2.274,1.41-4.763,1.576-10.833,1.25c-5.127-0.281-10.363-0.956-14.656-1.633
		c0,0,0.012,8.066,0.012,11.61c5.233,1.618,12.169,2.718,19.302,2.521c15.762-0.428,23.737-6.562,23.766-19.805
		C47.592,301.02,46.207,296.092,39.085,291.286"/>
	<path fill="#003375" d="M73.07,327.076c-10.111-0.032-14.652-3.441-14.691-13.62V284.95l-7.308-0.016v-9.87h7.308v-10.067
		l14.393-2.495v12.573c0,0,9.271-0.011,10.341-0.011v9.87c-1.069,0-10.341,0.016-10.341,0.016v26.308
		c0,1.811-0.071,3.271,0.374,3.96c0.463,0.688,0.638,0.97,2.016,1.091c1.664,0.148,5.846,0.095,8.556-0.144l-0.02,9.792
		C80.869,326.762,76.074,327.076,73.07,327.076"/>
	<path fill="#003375" d="M112.194,274.291c-5.107-0.05-12.571,0.829-17.566,2.279l0.021,10.27c3.373-0.36,9.057-1.001,13.501-1.094
		c3.159-0.068,6.041,0.093,7.682,1.221c1.472,1.003,2.157,2.573,2.157,5.179v3.048l-4.414-0.014
		c-14.948,0.031-22.18,3.522-22.46,14.854c-0.003,0.229-0.009,1.604-0.009,1.843c0.014,8.364,4.926,15.123,15.056,15.167
		c4.981-0.019,8.766-1.034,12.115-3.711v2.987h14.058v-34.174C132.321,279.35,124.048,274.398,112.194,274.291 M117.969,314.419
		c-1.74,0.762-3.571,1.528-6.588,1.627c-3.888,0.139-6.363-1.681-6.464-5.346c-0.004-0.17-0.004-0.465-0.004-0.621
		c0-3.39,1.047-4.729,2.761-5.605c1.762-1.002,5.438-1.268,10.271-1.002L117.969,314.419z"/>
	<path fill="#003375" d="M270.197,274.291c-5.107-0.05-12.567,0.829-17.569,2.279l0.025,10.27c3.369-0.36,9.054-1.001,13.501-1.094
		c3.161-0.068,6.039,0.093,7.684,1.221c1.47,1.003,2.154,2.573,2.154,5.179v3.048l-4.415-0.014
		c-14.947,0.031-22.176,3.522-22.453,14.854c-0.006,0.229-0.006,1.604-0.006,1.843c0.01,8.364,4.918,15.123,15.046,15.167
		c4.981-0.019,8.771-1.034,12.123-3.711v2.987h14.054v-34.174C290.321,279.35,282.046,274.398,270.197,274.291 M275.973,314.419
		c-1.743,0.762-3.571,1.528-6.588,1.627c-3.885,0.139-6.363-1.681-6.465-5.346c-0.005-0.17-0.005-0.465-0.005-0.621
		c0-3.39,1.043-4.729,2.763-5.605c1.757-1.002,5.439-1.268,10.27-1.002L275.973,314.419z"/>
	<path fill="#003375" d="M172.675,326.294V294.6c0-3.171-0.13-5.419-1.28-6.691c-1.547-1.713-3.021-2.082-6.047-1.844
		c-2.648,0.204-5.857,1.536-7.854,2.615l-0.002,37.613h-14.448v-51.288l13.36-0.004v4.125c4.304-2.989,8.831-4.818,14.775-4.836
		c11.586,0.017,15.876,8.105,15.876,16.882v35.121H172.675z"/>
	<path fill="#003375" d="M226.161,257.819v16.323c-1.841-0.425-5.451-0.738-8.215-0.729c-6.365,0.019-11.503,1.688-14.912,4.871
		c-4.241,3.943-6.758,9.062-6.892,19.484c0,0.386-0.006,7.852-0.006,8.25c0,14.55,6.809,21.025,18.471,21.036
		c5.19,0,8.554-1.188,11.865-3.719c0,2.66,0.009,2.941,0.009,2.941h14.076v-68.46h-14.396V257.819z M226.161,314.358
		c-1.882,1.099-4.22,1.685-6.889,1.685c-2.737,0-4.743-0.574-6.143-2.076c-2.002-2.15-2.587-4.342-2.657-11.156
		c-0.005-0.271-0.005-4.145-0.005-4.425c0-8.774,1.489-12.66,7.152-13.904c2.654-0.58,6.701-0.068,8.573,0.357L226.161,314.358z"/>
	<path fill="#003375" d="M364.53,257.819v16.323c-1.834-0.425-5.446-0.738-8.212-0.729c-6.36,0.019-11.505,1.688-14.918,4.871
		c-4.233,3.943-6.753,9.062-6.888,19.484c-0.006,0.386-0.009,7.852-0.009,8.25c0,14.55,6.808,21.025,18.471,21.036
		c5.191,0,8.555-1.188,11.865-3.719c0,2.66,0.009,2.941,0.009,2.941h14.08v-68.46H364.53V257.819z M364.53,314.358
		c-1.89,1.099-4.216,1.685-6.879,1.685c-2.742,0-4.749-0.574-6.146-2.076c-2.011-2.15-2.591-4.342-2.661-11.156
		c-0.003-0.271-0.003-4.145-0.003-4.425c0-8.774,1.484-12.66,7.148-13.904c2.655-0.58,6.707-0.068,8.576,0.357L364.53,314.358z"/>
	<path fill="#003375" d="M330.073,274.397c-6.032-0.694-12.668,1.97-14.997,4.353v-3.739h-14.12v51.283h14.378v-37.035
		c3.154-1.946,8.715-3.514,14.714-3.13C330.048,286.129,330.073,275.632,330.073,274.397"/>
	<path fill="#003375" d="M514.081,285.029v-10.001c-1.518,0-11.526,0.019-11.526,0.019v-3.804c0-1.826-0.006-2.904,0.791-3.705
		c1.134-1.136,6.012-0.951,10.799-0.662v-9.702c-2.207-0.488-6.757-1.042-10.356-1.042c-9.888,0-15.565,3.115-15.6,15.852v3.062
		h-7.934v9.982h7.912c0,0-0.003,41.003-0.003,41.292h14.391v-41.29H514.081z"/>
	<path fill="#003375" d="M561.952,302.025c0.026-10.839-0.738-14.884-4.749-20.27c-2.969-3.986-8.787-7.486-16.937-7.486
		c-12.975,0-22.974,7.105-23.063,23.821c-0.012,0.204-0.012,4.242-0.012,4.452c0,17.333,8.994,24.483,23.136,24.501
		c7.688,0,14.063-1.128,19.875-3.32c0-3.245-0.009-10.643-0.009-10.643c-5.324,1.231-13.479,2.861-19.482,2.217
		c-7.128-0.765-9.261-4.766-9.504-10.299l30.703-0.003C561.938,304.24,561.952,302.73,561.952,302.025 M531.261,295.73
		c0.073-7.583,3.796-10.632,8.687-10.648c5.004,0.017,8.533,3.228,8.684,10.648H531.261z"/>
	<path fill="#003375" d="M427.691,314.024c-0.701-0.072-1.275-0.165-1.658-0.546c-0.272-0.273-0.451-0.601-0.451-1.323v-54.697
		h-15.313l0.018,56.376c0,5.231,1.049,7.614,3.147,9.642c2.065,1.995,5.226,2.846,8.771,3.206c6.818,0.689,19.463,0.572,26.45-0.498
		c0-3.588,0-9.162,0-12.117L427.691,314.024z"/>
	<g>
		<path fill="#003375" d="M472.362,259.571v11.455H458.29v-11.455H472.362z M472.362,276.247v50.122H458.29v-50.122H472.362z"/>
	</g>
</g>
<g>
	<path fill="#0A7BC3" d="M24.516,386.231c-1.584,0.445-3.663,0.692-6.337,0.692H8.376c-1.04,0-1.485-0.494-1.485-1.534v-32.922
		c0-0.842,0.347-1.237,1.237-1.237h10.248c4.752,0,8.317,1.039,10.595,3.07c2.773,2.524,4.209,6.435,4.209,11.782v6.039
		c0,5.445-1.337,9.308-4.01,11.485C27.634,384.845,26.1,385.736,24.516,386.231z M26.545,365.836c0-3.862-0.94-6.536-2.871-8.022
		c-1.039-0.841-2.425-1.336-4.157-1.533c-0.644-0.049-2.674-0.149-5-0.099c-0.792,0.05-1.039,0.297-1.039,1.04v23.119
		c0,0.297,0,0.594,0.049,0.742c0.05,0.495,0.248,0.644,0.693,0.693c0.247,0.05,0.545,0.05,0.94,0.099
		c2.228,0,3.663-0.049,4.208-0.099c1.584-0.148,2.92-0.594,4.009-1.287c2.129-1.386,3.168-4.207,3.168-8.219V365.836z"/>
	<path fill="#0A7BC3" d="M38.076,356.378v-4.949h6.286v4.949H38.076z M38.076,386.924v-26.287h6.286v26.287H38.076z"/>
	<path fill="#0A7BC3" d="M72.234,387.519c0,6.338-4.061,8.86-11.188,8.91c-2.92,0-6.98-0.297-9.753-0.94v-4.456
		c2.079,0.346,4.356,0.594,6.782,0.742c2.425,0.099,4.604-0.148,5.939-0.99c1.438-0.842,1.832-1.831,1.832-3.663v-2.97
		c-2.525,1.388-4.505,1.833-6.237,1.883c-2.97,0.048-5.346-0.545-6.981-1.98c-2.178-1.931-3.168-4.259-3.267-10.05
		c0-0.198,0-1.732,0-1.931c0-4.554,0.94-7.278,2.871-9.357c1.484-1.584,3.961-2.623,6.781-2.475c2.675,0.099,4.308,0.792,7.08,2.97
		v-2.623h6.14L72.234,387.519L72.234,387.519z M65.847,366.577c-1.089-0.693-2.673-1.139-3.96-1.337
		c-1.881-0.247-3.515,0.148-4.604,1.237c-1.287,1.287-1.534,3.168-1.584,6.338v1.237c0,4.604,0.842,7.13,4.257,7.575
		c1.684,0.198,4.108-0.297,5.891-1.287V366.577z"/>
	<path fill="#0A7BC3" d="M77.526,356.378v-4.949h6.287v4.949H77.526z M77.526,386.924v-26.287h6.287v26.287H77.526z"/>
	<path fill="#0A7BC3" d="M103.665,386.825c-1.535,0.347-3.714,0.495-5.199,0.447c-5.297,0-7.228-1.586-7.228-6.635v-16.14
		l-4.109-0.05v-3.861h4.109v-5.544l6.287-1.09v6.634h5.791v3.861l-5.791,0.05v14.952c0,0.543,0,0.989,0,1.386
		c0.05,0.594,0.148,0.99,0.594,1.484c0.396,0.495,0.892,0.595,1.436,0.644c0.842,0.05,2.625,0.05,4.11-0.049V386.825z"/>
	<path fill="#0A7BC3" d="M121.236,386.875v-2.624c-3.068,2.476-4.949,3.021-7.525,3.021c-5.05,0-7.426-3.368-7.426-7.575
		c0-0.15,0-0.893,0-0.99c0.148-5.496,3.316-7.476,11.485-7.427h3.316v-2.078c0-4.209-3.119-4.507-6.338-4.407
		c-2.079,0-4.654,0.297-6.534,0.495v-4.012c2.624-0.692,6.239-1.089,8.764-1.039c6.238,0.05,10.248,2.526,10.248,8.963v17.673
		H121.236L121.236,386.875z M121.039,374.102c-3.466-0.2-5.693-0.05-6.932,0.644c-1.237,0.644-2.029,1.781-1.979,3.961v0.346
		c0.049,2.673,1.979,4.011,4.455,3.91c1.831-0.05,2.97-0.545,4.504-1.188L121.039,374.102z"/>
	<path fill="#0A7BC3" d="M132.718,386.924v-35.495h6.287v35.495H132.718z"/>
	<path fill="#0A7BC3" d="M162.221,383.855c-2.625-2.526-3.863-6.486-3.863-11.636v-6.435c0-5.099,1.287-8.912,3.911-11.437
		c2.376-2.228,5.198-3.565,10.248-3.663c3.267-0.049,6.585,0.296,9.01,0.842v5.149c-2.376-0.247-5.842-0.495-8.515-0.396
		c-2.772,0.05-4.703,0.791-6.188,2.426c-1.436,1.634-1.98,3.911-1.98,6.979v6.685c0,3.118,0.545,5.396,1.98,6.979
		c1.484,1.683,3.415,2.376,6.188,2.475c0.841,0,1.831,0,3.714-0.05v-12.821h6.337v17.03c-2.723,0.693-7.229,1.436-10.545,1.337
		C167.469,387.272,164.547,386.033,162.221,383.855z"/>
	<path fill="#0A7BC3" d="M204.049,386.875v-2.376c-2.97,2.178-5.298,2.821-7.772,2.821h-0.644c-5.843,0-7.971-3.663-7.971-8.219
		v-18.516h6.387v16.932c0,1.386,0.247,2.721,0.891,3.613c0.892,1.09,2.079,1.485,3.812,1.485c1.634,0,3.467-0.545,5.101-1.683
		v-20.348h6.437v26.287h-6.239V386.875z"/>
	<path fill="#0A7BC3" d="M215.679,356.378v-4.949h6.286v4.949H215.679z M215.679,386.924v-26.287h6.286v26.287H215.679z"/>
	<path fill="#0A7BC3" d="M243.599,386.875v-2.376c-2.871,2.178-4.555,2.773-7.278,2.773c-5.892,0-9.357-3.12-9.357-10.595
		c0-0.198,0-3.764,0-4.01c0.1-5.446,1.387-8.021,3.515-9.952c1.732-1.584,4.309-2.426,7.674-2.426
		c1.485-0.049,3.416,0.15,5.249,0.545v-9.406h6.386v35.446H243.599z M233.301,373.013v1.93c0,3.715,0.347,5.15,1.683,6.534
		c0.94,1.04,2.327,1.338,3.911,1.338s2.97-0.346,4.504-1.188l0.05-16.534c-1.634-0.347-4.01-0.646-5.643-0.298
		C234.143,365.588,233.301,368.261,233.301,373.013z"/>
	<path fill="#0A7BC3" d="M277.308,375.191h-16.883c0.198,4.108,1.535,6.684,5.893,7.179c3.118,0.296,7.128-0.397,10-1.039v4.355
		c-2.92,1.04-6.188,1.586-10.1,1.586c-7.377,0-11.931-3.615-11.931-12.674v-2.13c0-8.662,5.148-12.277,11.882-12.277
		c4.257,0,7.179,1.831,8.664,3.812c2.079,2.723,2.475,4.456,2.475,10.347V375.191z M260.477,371.627h11.04
		c-0.1-5.099-2.277-7.03-5.544-7.03C262.803,364.596,260.526,366.428,260.477,371.627z"/>
	<path fill="#0A7BC3" d="M281.908,386.924v-35.495h6.286v35.495H281.908z"/>
	<path fill="#0A7BC3" d="M293.739,356.378v-4.949h6.287v4.949H293.739z M293.739,386.924v-26.287h6.287v26.287H293.739z"/>
	<path fill="#0A7BC3" d="M322.006,386.924v-16.338c0-1.633-0.05-3.219-0.893-4.157c-1.089-1.188-2.178-1.387-3.91-1.287
		c-1.634,0.149-3.515,0.645-5,1.484l-0.049,20.298h-6.386v-26.287h6.138v2.524c3.416-2.426,5.447-2.92,8.516-2.92
		c5.792,0,7.97,3.91,7.97,8.467v18.22h-6.386V386.924z"/>
	<path fill="#0A7BC3" d="M356.112,375.191h-16.881c0.198,4.108,1.533,6.684,5.892,7.179c3.119,0.296,7.129-0.397,9.999-1.039v4.355
		c-2.92,1.04-6.188,1.586-10.098,1.586c-7.377,0-11.931-3.615-11.931-12.674v-2.13c0-8.662,5.149-12.277,11.881-12.277
		c4.259,0,7.18,1.831,8.664,3.812c2.079,2.723,2.474,4.456,2.474,10.347V375.191L356.112,375.191z M339.279,371.627h11.04
		c-0.098-5.099-2.277-7.03-5.544-7.03C341.607,364.596,339.328,366.428,339.279,371.627z"/>
	<path fill="#0A7BC3" d="M359.721,386.28v-4.405c2.475,0.396,5.051,0.693,7.575,0.693c1.781,0,4.851-0.05,4.851-2.526
		c0-0.94-0.594-1.584-1.337-2.128c-2.623-1.881-5.791-2.921-8.515-4.754c-2.131-1.386-2.971-3.02-2.971-5.544
		c0-6.387,5.149-7.425,10.396-7.425c2.476,0,5.051,0.295,7.477,0.842v4.506c-2.673-0.445-5.496-0.844-8.219-0.844
		c-1.436,0-3.219,0.248-3.219,2.129c0,0.843,0.645,1.388,1.287,1.883c0.544,0.345,1.287,0.79,1.881,1.089
		c2.328,1.188,4.456,2.13,6.634,3.516c2.179,1.387,3.269,3.268,3.269,5.843c0,2.278-0.346,3.91-2.03,5.544
		c-2.228,2.178-6.287,2.575-9.259,2.575C364.969,387.272,362.198,386.973,359.721,386.28z"/>
</g>
<linearGradient id="SVGID_1_" gradientUnits="userSpaceOnUse" x1="365.2385" y1="476.9851" x2="388.1927" y2="521.8231" gradientTransform="matrix(1.5 0 0 -1.5 2.1503 975.349)">
	<stop  offset="0" style="stop-color:#F5891F"/>
	<stop  offset="1" style="stop-color:#FFDC00"/>
</linearGradient>
<polygon fill="url(#SVGID_1_)" points="546.941,236.552 561.894,265.958 596.326,198.701 "/>
<g>
	<path fill="#F5891F" d="M424.457,376.808c0,6.825-4.115,10.438-12.848,10.689c-2.007,0.101-3.914,0.101-5.821-0.05
		c-4.918-0.352-7.076-2.008-7.076-6.977c0-25.946,0-27.301,0-27.301c0-1.405,0.903-2.208,2.259-2.309
		c2.408-0.15,7.277-0.15,10.74-0.05c8.18,0.251,11.392,3.914,11.392,9.786c0,4.165-2.007,6.273-4.065,7.327
		C422.5,369.08,424.457,371.94,424.457,376.808z M406.592,365.566c1.053,0,4.215,0,4.215,0c2.811,0,4.518-1.354,4.518-4.215
		c0-2.811-1.557-4.115-4.518-4.267c-1.556-0.05-2.76-0.1-3.613,0c-0.15,0.051-0.352,0.101-0.451,0.201
		c-0.101,0.101-0.15,0.201-0.15,0.451V365.566z M416.377,376.055c0-3.162-1.705-4.667-5.42-4.667c-2.309,0-3.313,0-4.365,0v8.381
		c0,0.652,0.25,0.953,0.902,1.004c0.954,0.101,1.506,0.15,3.514,0.05C414.722,380.722,416.377,379.218,416.377,376.055z"/>
	<path fill="#F5891F" d="M449.523,350.963v6.675h-12.948c-0.401,0-0.652,0.05-0.854,0.251c-0.15,0.15-0.25,0.351-0.25,0.702v6.825
		h13.45v6.524h-13.45v7.277c0,0.401,0.1,0.552,0.25,0.702c0.201,0.201,0.452,0.301,0.854,0.301h12.948v6.675
		c-3.663,0.553-12.195,0.603-15.809,0.251c-1.856-0.2-3.513-0.652-4.617-1.656c-1.104-1.104-1.656-2.358-1.656-5.118v-22.936
		c0-2.76,0.552-4.015,1.656-5.068c1.104-1.055,2.761-1.506,4.617-1.707C437.327,350.31,445.86,350.36,449.523,350.963z"/>
	<path fill="#F5891F" d="M478.276,357.737h-8.983v29.359h-8.08v-29.359h-9.033v-6.925h26.097V357.737z"/>
	<path fill="#F5891F" d="M498.347,353.773l8.281,33.323h-8.432l-2.107-8.883h-9.285l-2.057,8.883h-8.382l8.331-33.323
		c0.552-2.209,1.807-3.062,4.064-3.062c2.309,0,3.213,0,5.471,0S497.795,351.564,498.347,353.773z M494.634,371.489l-3.162-13.601
		l-3.213,13.601H494.634z"/>
</g>
</svg>
