<?xml version="1.0" encoding="utf-8"?>
<!-- Generator: Adobe Illustrator 17.1.0, SVG Export Plug-In . SVG Version: 6.00 Build 0)  -->
<!DOCTYPE svg PUBLIC "-//W3C//DTD SVG 1.1//EN" "http://www.w3.org/Graphics/SVG/1.1/DTD/svg11.dtd">
<svg version="1.1" id="Final_Flag_Logo" xmlns="http://www.w3.org/2000/svg" xmlns:xlink="http://www.w3.org/1999/xlink" x="0px"
	 y="0px" width="1326.158px" height="288.383px" viewBox="0 0 1326.158 288.383" enable-background="new 0 0 1326.158 288.383"
	 xml:space="preserve">
<g>
	<g>
		<path fill="#0A2F73" d="M79.241,207.174c-8.517-5.756-26.472-14.982-33.403-19.045c-8.189-4.777-12.438-6.911-12.763-13.078
			c-0.152-2.992,0.239-5.644,2.398-7.944c3.185-3.401,8.875-4.002,18.13-3.754c11.265,0.312,25.964,2.019,36.478,4.255
			c0.173,0.041-0.077-22.287,0.052-27.241c-9.603-2.569-24.876-4.686-37.594-4.686c-36.704,0.036-52.54,12.337-52.54,41.498
			c0,18.936,5.87,27.304,27.861,39.969c7.132,4.118,15.961,9.228,25.102,15.251c7.666,5.053,9.789,7.635,10.752,12.646
			c0.946,4.998-1.26,10.34-4.802,12.525c-5.089,3.154-10.656,3.524-24.242,2.794c-11.474-0.626-23.189-2.135-32.795-3.651
			c0,0,0.027,18.05,0.027,25.981c11.711,3.622,27.232,6.08,43.191,5.636c35.268-0.955,53.116-14.679,53.18-44.314
			C98.275,228.958,95.177,217.926,79.241,207.174"/>
		<path fill="#0A2F73" d="M155.284,287.261c-22.626-0.074-32.786-7.701-32.874-30.478v-63.789l-16.353-0.031v-22.087h16.353v-22.528
			l32.205-5.583V170.9c0,0,20.745-0.024,23.139-0.024v22.087c-2.394,0-23.139,0.031-23.139,0.031v58.873
			c0,4.05-0.162,7.314,0.836,8.857c1.036,1.539,1.425,2.168,4.512,2.439c3.722,0.331,13.082,0.212,19.144-0.318l-0.044,21.909
			C172.74,286.559,162.007,287.261,155.284,287.261"/>
		<path fill="#0A2F73" d="M242.833,169.147c-11.428-0.112-28.132,1.854-39.308,5.098l0.048,22.979
			c7.546-0.807,20.267-2.239,30.212-2.45c7.07-0.153,13.515,0.206,17.189,2.735c3.291,2.241,4.827,5.756,4.827,11.588v6.819
			l-9.877-0.027c-33.447,0.066-49.629,7.88-50.255,33.235c-0.009,0.517-0.02,3.59-0.02,4.123
			c0.031,18.717,11.022,33.84,33.688,33.938c11.146-0.037,19.615-2.313,27.109-8.301v6.688h31.458v-76.476
			C287.87,180.464,269.357,169.387,242.833,169.147 M255.756,258.939c-3.893,1.704-7.991,3.418-14.74,3.641
			c-8.7,0.311-14.239-3.761-14.462-11.961c-0.012-0.379-0.012-1.041-0.012-1.388c0-7.585,2.344-10.585,6.18-12.544
			c3.941-2.242,12.166-2.838,22.981-2.242L255.756,258.939z"/>
		<path fill="#0A2F73" d="M596.39,169.147c-11.429-0.112-28.119,1.854-39.315,5.098l0.057,22.979
			c7.538-0.807,20.258-2.239,30.212-2.45c7.072-0.153,13.512,0.206,17.193,2.735c3.289,2.241,4.818,5.756,4.818,11.588v6.819
			l-9.877-0.027c-33.449,0.066-49.625,7.88-50.244,33.235c-0.014,0.517-0.014,3.59-0.014,4.123
			c0.022,18.717,11.006,33.84,33.669,33.938c11.146-0.037,19.624-2.313,27.127-8.301v6.688h31.446v-76.476
			C641.417,180.464,622.905,169.387,596.39,169.147 M609.317,258.939c-3.899,1.704-7.993,3.418-14.742,3.641
			c-8.695,0.311-14.239-3.761-14.467-11.961c-0.011-0.379-0.011-1.041-0.011-1.388c0-7.585,2.335-10.585,6.185-12.544
			c3.932-2.242,12.171-2.838,22.977-2.242L609.317,258.939z"/>
		<path fill="#0A2F73" d="M378.171,285.514v-70.92c0-7.098-0.292-12.128-2.865-14.975c-3.46-3.831-6.761-4.658-13.529-4.125
			c-5.927,0.455-13.107,3.436-17.574,5.852l-0.004,84.168h-32.331V170.744l29.897-0.01v9.232
			c9.629-6.691,19.761-10.781,33.06-10.819c25.925,0.034,35.524,18.137,35.524,37.776v78.59H378.171z"/>
		<path fill="#0A2F73" d="M497.852,132.288v36.524c-4.117-0.952-12.198-1.654-18.38-1.634c-14.244,0.041-25.739,3.775-33.372,10.899
			c-9.49,8.825-15.12,20.278-15.419,43.602c0,0.861-0.014,17.57-0.014,18.461c0,32.56,15.234,47.046,41.331,47.073
			c11.615,0,19.139-2.657,26.551-8.319c0,5.952,0.021,6.581,0.021,6.581h31.497V132.288H497.852z M497.852,258.806
			c-4.21,2.458-9.442,3.768-15.413,3.768c-6.125,0-10.613-1.282-13.745-4.645c-4.482-4.811-5.793-9.715-5.95-24.964
			c-0.009-0.604-0.009-9.273-0.009-9.902c0-19.631,3.333-28.329,16.002-31.109c5.94-1.299,14.998-0.152,19.187,0.801
			L497.852,258.806z"/>
		<path fill="#0A2F73" d="M807.477,132.288v36.524c-4.108-0.952-12.192-1.654-18.376-1.634
			c-14.233,0.041-25.746,3.775-33.381,10.899c-9.477,8.825-15.113,20.278-15.412,43.602c-0.014,0.861-0.018,17.57-0.018,18.461
			c0,32.56,15.234,47.046,41.328,47.073c11.615,0,19.147-2.657,26.549-8.319c0,5.952,0.023,6.581,0.023,6.581h31.508V132.288
			H807.477z M807.477,258.806c-4.232,2.458-9.436,3.768-15.397,3.768c-6.134,0-10.626-1.282-13.754-4.645
			c-4.494-4.811-5.795-9.715-5.95-24.964c-0.009-0.604-0.009-9.273-0.009-9.902c0-19.631,3.328-28.329,16-31.109
			c5.937-1.299,15.002-0.152,19.185,0.801L807.477,258.806z"/>
		<path fill="#0A2F73" d="M730.376,169.383c-13.503-1.555-28.349,4.404-33.563,9.741v-8.368h-31.587v114.758h32.168V202.64
			c7.057-4.355,19.497-7.865,32.92-7.007C730.314,195.633,730.376,172.145,730.376,169.383"/>
		<path fill="#0A2F73" d="M1142.121,193.174v-22.38c-3.392,0-25.785,0.041-25.785,0.041v-8.513c0-4.084-0.014-6.496,1.766-8.289
			c2.537-2.54,13.455-2.13,24.164-1.48v-21.707c-4.932-1.095-15.113-2.334-23.174-2.334c-22.127,0-34.826,6.971-34.906,35.472v6.852
			h-17.752v22.339h17.703c0,0-0.008,91.748-0.008,92.399h32.207v-92.399H1142.121z"/>
		<path fill="#0A2F73" d="M1249.24,231.207c0.06-24.254-1.65-33.307-10.627-45.355c-6.639-8.923-19.656-16.754-37.898-16.754
			c-29.031,0-51.406,15.899-51.606,53.305c-0.021,0.456-0.021,9.492-0.021,9.959c0,38.786,20.123,54.788,51.77,54.826
			c17.199,0,31.463-2.525,44.469-7.43c0-7.262-0.014-23.813-0.014-23.813c-11.918,2.757-30.166,6.403-43.6,4.957
			c-15.951-1.71-20.723-10.661-21.264-23.045l68.699-0.008C1249.211,236.163,1249.24,232.785,1249.24,231.207 M1180.566,217.119
			c0.16-16.965,8.494-23.788,19.434-23.826c11.197,0.038,19.101,7.227,19.432,23.826H1180.566z"/>
		<path fill="#0A2F73" d="M948.812,258.054c-1.571-0.161-2.857-0.37-3.713-1.223c-0.61-0.608-1.007-1.343-1.007-2.96V131.476
			h-34.269l0.038,126.153c0,11.707,2.35,17.036,7.044,21.575c4.622,4.463,11.694,6.369,19.626,7.171
			c15.256,1.543,43.551,1.28,59.182-1.115c0-8.025,0-20.504,0-27.114L948.812,258.054z"/>
		<g>
			<path fill="#0A2F73" d="M1048.767,136.208v25.632h-31.486v-25.632H1048.767z M1048.767,173.522v112.158h-31.486V173.522H1048.767
				z"/>
		</g>
	</g>
	<linearGradient id="SVGID_1_" gradientUnits="userSpaceOnUse" x1="1307.2271" y1="-2.6086" x2="1224.3744" y2="130.4579">
		<stop  offset="0" style="stop-color:#FFDD00"/>
		<stop  offset="0.2132" style="stop-color:#FED802"/>
		<stop  offset="0.4673" style="stop-color:#FDC908"/>
		<stop  offset="0.7412" style="stop-color:#FAB212"/>
		<stop  offset="1" style="stop-color:#F7941E"/>
	</linearGradient>
	<polygon fill="url(#SVGID_1_)" points="1215.648,84.7 1249.113,150.498 1326.158,-0.001 	"/>
</g>
</svg>
