<?xml version="1.0" encoding="utf-8"?>
<!-- Generator: Adobe Illustrator 17.1.0, SVG Export Plug-In . SVG Version: 6.00 Build 0)  -->
<!DOCTYPE svg PUBLIC "-//W3C//DTD SVG 1.1//EN" "http://www.w3.org/Graphics/SVG/1.1/DTD/svg11.dtd">
<svg version="1.1" id="Logo" xmlns="http://www.w3.org/2000/svg" xmlns:xlink="http://www.w3.org/1999/xlink" x="0px" y="0px"
	 width="600px" height="202.93px" viewBox="0 0 600 202.93" enable-background="new 0 0 600 202.93" xml:space="preserve">
<g>
	<path fill="#FFFFFF" d="M39.085,107.585c-3.807-2.573-11.83-6.695-14.928-8.512c-3.66-2.134-5.559-3.088-5.704-5.844
		c-0.067-1.336,0.106-2.521,1.07-3.549c1.424-1.521,3.967-1.788,8.102-1.679c5.034,0.142,11.604,0.903,16.303,1.903
		c0.077,0.019-0.035-9.961,0.023-12.174c-4.291-1.148-11.118-2.094-16.8-2.094C10.75,75.648,3.672,81.147,3.672,94.179
		c0,8.463,2.624,12.201,12.452,17.86c3.188,1.842,7.132,4.124,11.217,6.816c3.426,2.257,4.374,3.411,4.805,5.651
		c0.423,2.233-0.563,4.622-2.146,5.597c-2.274,1.41-4.763,1.576-10.833,1.25c-5.127-0.281-10.363-0.956-14.656-1.633
		c0,0,0.012,8.066,0.012,11.61c5.233,1.618,12.169,2.718,19.302,2.521c15.762-0.428,23.737-6.562,23.766-19.805
		C47.592,117.319,46.207,112.391,39.085,107.585"/>
	<path fill="#FFFFFF" d="M73.07,143.375c-10.111-0.032-14.652-3.441-14.691-13.62v-28.506l-7.308-0.016v-9.87h7.308V81.296
		l14.393-2.495v12.573c0,0,9.271-0.011,10.341-0.011v9.87c-1.069,0-10.341,0.016-10.341,0.016v26.308
		c0,1.811-0.071,3.271,0.374,3.96c0.463,0.688,0.638,0.97,2.016,1.091c1.664,0.148,5.846,0.095,8.556-0.144l-0.02,9.792
		C80.869,143.061,76.074,143.375,73.07,143.375"/>
	<path fill="#FFFFFF" d="M112.194,90.59c-5.107-0.05-12.571,0.829-17.566,2.279l0.021,10.27c3.373-0.36,9.057-1.001,13.501-1.094
		c3.159-0.068,6.041,0.093,7.682,1.221c1.472,1.003,2.157,2.573,2.157,5.179v3.048l-4.414-0.014
		c-14.948,0.031-22.18,3.522-22.46,14.854c-0.003,0.229-0.009,1.604-0.009,1.843c0.014,8.364,4.926,15.123,15.056,15.167
		c4.981-0.019,8.766-1.034,12.115-3.711v2.987h14.058v-34.174C132.321,95.649,124.048,90.697,112.194,90.59 M117.969,130.718
		c-1.74,0.762-3.571,1.528-6.588,1.627c-3.888,0.139-6.363-1.681-6.464-5.346c-0.004-0.17-0.004-0.465-0.004-0.621
		c0-3.39,1.047-4.729,2.761-5.605c1.762-1.002,5.438-1.268,10.271-1.002L117.969,130.718z"/>
	<path fill="#FFFFFF" d="M270.197,90.59c-5.107-0.05-12.567,0.829-17.569,2.279l0.025,10.27c3.369-0.36,9.054-1.001,13.501-1.094
		c3.161-0.068,6.039,0.093,7.684,1.221c1.47,1.003,2.154,2.573,2.154,5.179v3.048l-4.415-0.014
		c-14.947,0.031-22.176,3.522-22.453,14.854c-0.006,0.229-0.006,1.604-0.006,1.843c0.01,8.364,4.918,15.123,15.046,15.167
		c4.981-0.019,8.771-1.034,12.123-3.711v2.987h14.054v-34.174C290.321,95.649,282.046,90.697,270.197,90.59 M275.973,130.718
		c-1.743,0.762-3.571,1.528-6.588,1.627c-3.885,0.139-6.363-1.681-6.465-5.346c-0.005-0.17-0.005-0.465-0.005-0.621
		c0-3.39,1.043-4.729,2.763-5.605c1.757-1.002,5.439-1.268,10.27-1.002L275.973,130.718z"/>
	<path fill="#FFFFFF" d="M172.675,142.593v-31.694c0-3.171-0.13-5.419-1.28-6.691c-1.547-1.713-3.021-2.082-6.047-1.844
		c-2.648,0.204-5.857,1.536-7.854,2.615l-0.002,37.613h-14.448V91.304l13.36-0.004v4.125c4.304-2.989,8.831-4.818,14.775-4.836
		c11.586,0.017,15.876,8.105,15.876,16.882v35.121h-14.38V142.593z"/>
	<path fill="#FFFFFF" d="M226.161,74.118v16.323c-1.841-0.425-5.451-0.738-8.215-0.729c-6.365,0.019-11.503,1.688-14.912,4.871
		c-4.241,3.943-6.758,9.062-6.892,19.484c0,0.386-0.006,7.852-0.006,8.25c0,14.55,6.809,21.025,18.471,21.036
		c5.19,0,8.554-1.188,11.865-3.719c0,2.66,0.009,2.941,0.009,2.941h14.076v-68.46h-14.396L226.161,74.118L226.161,74.118z
		 M226.161,130.657c-1.882,1.099-4.22,1.685-6.889,1.685c-2.737,0-4.743-0.574-6.143-2.076c-2.002-2.15-2.587-4.342-2.657-11.156
		c-0.005-0.271-0.005-4.145-0.005-4.425c0-8.774,1.489-12.66,7.152-13.904c2.654-0.58,6.701-0.068,8.573,0.357L226.161,130.657z"/>
	<path fill="#FFFFFF" d="M364.53,74.118v16.323c-1.834-0.425-5.446-0.738-8.212-0.729c-6.36,0.019-11.505,1.688-14.918,4.871
		c-4.233,3.943-6.753,9.062-6.888,19.484c-0.006,0.386-0.009,7.852-0.009,8.25c0,14.55,6.808,21.025,18.471,21.036
		c5.191,0,8.555-1.188,11.865-3.719c0,2.66,0.009,2.941,0.009,2.941h14.08v-68.46H364.53V74.118z M364.53,130.657
		c-1.89,1.099-4.216,1.685-6.879,1.685c-2.742,0-4.749-0.574-6.146-2.076c-2.011-2.15-2.591-4.342-2.661-11.156
		c-0.003-0.271-0.003-4.145-0.003-4.425c0-8.774,1.484-12.66,7.148-13.904c2.655-0.58,6.707-0.068,8.576,0.357L364.53,130.657z"/>
	<path fill="#FFFFFF" d="M330.073,90.696c-6.032-0.694-12.668,1.97-14.997,4.353V91.31h-14.12v51.283h14.378v-37.035
		c3.154-1.946,8.715-3.514,14.714-3.13C330.048,102.428,330.073,91.931,330.073,90.696"/>
	<path fill="#FFFFFF" d="M514.081,101.328V91.327c-1.518,0-11.526,0.019-11.526,0.019v-3.804c0-1.826-0.006-2.904,0.791-3.705
		c1.134-1.136,6.012-0.951,10.799-0.662v-9.702c-2.207-0.488-6.757-1.042-10.356-1.042c-9.888,0-15.565,3.115-15.6,15.852v3.062
		h-7.934v9.982h7.912c0,0-0.003,41.003-0.003,41.292h14.391v-41.29h11.526V101.328z"/>
	<path fill="#FFFFFF" d="M561.952,118.324c0.026-10.839-0.738-14.884-4.749-20.27c-2.969-3.986-8.787-7.486-16.937-7.486
		c-12.975,0-22.974,7.105-23.063,23.821c-0.012,0.204-0.012,4.242-0.012,4.452c0,17.333,8.994,24.483,23.136,24.501
		c7.688,0,14.063-1.128,19.875-3.32c0-3.245-0.009-10.643-0.009-10.643c-5.324,1.231-13.479,2.861-19.482,2.217
		c-7.128-0.765-9.261-4.766-9.504-10.299l30.703-0.003C561.938,120.539,561.952,119.029,561.952,118.324 M531.261,112.029
		c0.073-7.583,3.796-10.632,8.687-10.648c5.004,0.017,8.533,3.228,8.684,10.648H531.261z"/>
	<path fill="#FFFFFF" d="M427.691,130.323c-0.701-0.072-1.275-0.165-1.658-0.546c-0.272-0.273-0.451-0.601-0.451-1.323V73.757
		h-15.313l0.018,56.376c0,5.231,1.049,7.614,3.147,9.642c2.065,1.995,5.226,2.846,8.771,3.206c6.818,0.689,19.463,0.572,26.45-0.498
		c0-3.588,0-9.162,0-12.117L427.691,130.323z"/>
	<g>
		<path fill="#FFFFFF" d="M472.362,75.87v11.455H458.29V75.87H472.362z M472.362,92.546v50.122H458.29V92.546H472.362z"/>
	</g>
</g>
<linearGradient id="SVGID_1_" gradientUnits="userSpaceOnUse" x1="298.904" y1="-73.7851" x2="321.8583" y2="-118.6233" gradientTransform="matrix(1.5 0 0 1.5 101.6503 186.849)">
	<stop  offset="0" style="stop-color:#F5891F"/>
	<stop  offset="1" style="stop-color:#FFDC00"/>
</linearGradient>
<polygon fill="url(#SVGID_1_)" points="546.941,52.851 561.894,82.257 596.326,15 "/>
</svg>
